# xmcd
#
# Track frame offsets:
#	150
#	18749
#	34568
#	53954
#	67622
#	89334
#	107873
#	122232
#	140594
#	159196
#	171698
#	184690
#
# Disc length: 2655 seconds
#
# Revision: 0
# Processed by: cddbd v1.5.1PL2 Copyright (c) Steve Scherf et al.
# Submitted via: EasyCDDAExtractor 9.1.1.5
#
DISCID=a20a5d0c
DTITLE=Keziah Jones - Blufunk is a Fact!
DYEAR=1992
DGENRE=Blues
TTITLE0=The Wisdom Behind the Smile
TTITLE1=Walking Naked Thru Bluebell Field
TTITLE2=Rythm Is Love
TTITLE3=Runaway Slavery Days are Over
TTITLE4=Where's Life?
TTITLE5=The Funderlying Undermentals
TTITLE6=Frinigro Interstellar
TTITLE7=Free Your Soul
TTITLE8=Curious Kinda Subconcious
TTITLE9=The Waxing - The Waning
TTITLE10=The Invisible Ladder
TTITLE11=Pleasure Is Kisses Within
EXTD=
EXTT0=
EXTT1=
EXTT2=
EXTT3=
EXTT4=
EXTT5=
EXTT6=
EXTT7=
EXTT8=
EXTT9=
EXTT10=
EXTT11=
PLAYORDER=
